<svg class="icon link-icon" viewBox="0 0 28 28" xmlns="http://www.w3.org/2000/svg">
  <path d="M10.76 21.7l-1.3 1.28a2.9 2.9 0 01-4.06 0 2.8 2.8 0 010-4l4.77-4.74c.98-.98 2.84-2.42 4.2-1.08a1.59 1.59 0 102.23-2.25C14.3 8.63 10.9 9.05 7.93 12l-4.77 4.73a5.96 5.96 0 000 8.5 6.05 6.05 0 008.54 0l1.3-1.28a1.59 1.59 0 10-2.24-2.25zM25.22 3.3c-2.48-2.45-5.94-2.58-8.23-.3l-1.61 1.6a1.59 1.59 0 102.23 2.24l1.62-1.6c1.18-1.18 2.74-.69 3.75.31a2.8 2.8 0 010 4l-5.1 5.05c-2.31 2.31-3.41 1.23-3.87.77a1.58 1.58 0 10-2.23 2.25 5 5 0 003.56 1.58c1.57 0 3.22-.78 4.79-2.34l5.09-5.05a5.95 5.95 0 000-8.5z" />
</svg>