<svg class="theme-toggle-icon" viewBox="0 0 32 32" width="18px" xmlns="http://www.w3.org/2000/svg">
  <clipPath id="moon">
    <path class="moon" d="M0-11h25a1 1 0 0017 13v30H0Z" />
  </clipPath>
  <g clip-path="url(#moon)">
    <circle cx="16" cy="16" r="12" />
    <path class="rays" d="M6.7 23a1 1 0 010 4.6 1 1 0 010-4.6m21-16.3a1 1 0 01-4.7 0 1 1 0 014.7 0m-2.4 21a1 1 0 010-4.6 1 1 0 010 4.6M9 6.7a1 1 0 01-4.6 0 1 1 0 014.6 0m-5.8 7a1 1 0 010 4.6 1 1 0 010-4.6m25.6 4.6a1 1 0 010-4.6 1 1 0 010 4.6M13.7 28.8a1 1 0 014.6 0 1 1 0 01-4.6 0m4.6-25.6a1 1 0 01-4.6 0 1 1 0 014.6 0" />
    <path class="gear" d="M8 16a1 1-180 0016 0A1 1-180 008 16m-7 2.5v-5l3.4-.7L5.5 10 3.63 7.16l3.53-3.53L10 5.5l2.8-1.1.7-3.4h5l.7 3.4L22 5.5l2.84-1.88 3.53 3.54L26.5 10l1.1 2.8 3.4.7v5l-3.4.7-1.1 2.8 1.87 2.84-3.53 3.53L22 26.5l-2.8 1.1-.7 3.4h-5l-.7-3.4-2.8-1.1-2.83 1.87-3.54-3.53L5.5 22l-1.1-2.8Z" />
  </g>
</svg>
