<svg class="theme-toggle-icon" viewBox="0 0 32 32" width="16px" xmlns="http://www.w3.org/2000/svg">
  <clipPath id="moon">
    <path class="moon" d="M0-11h25a1 1 0 0017 13v30H0Z" />
  </clipPath>
  <g clip-path="url(#moon)">
    <circle cx="16" cy="16" r="12" />
    <path class="rays" d="M6.7 23a1 1 0 010 4.6 1 1 0 010-4.6Zm21-16.3A1 1 0 0123 6.7a1 1 0 014.7 0Zm-2.4 21a1 1 0 010-4.6 1 1 0 010 4.6ZM9 6.7a1 1 0 01-4.6 0A1 1 0 019 6.7Zm-5.8 7a1 1 0 010 4.6 1 1 0 010-4.6Zm25.6 4.6a1 1 0 010-4.6 1 1 0 010 4.6ZM13.7 28.8a1 1 0 014.6 0 1 1 0 01-4.6 0ZM18.3 3.2a1 1 0 01-4.6 0 1 1 0 014.6 0Z" />
    <path class="gear" d="M24 16A1 1 0 008 16a1 1 0 0016 0Zm6.2-2.8.744.84v3.9024l-.7452.8388-2.676.3216-1.1904 2.8764L27.998 24.096l-.0672 1.122-2.7588 2.7612-1.1196.0672-2.1192-1.6644-2.8776 1.1892-.3216 2.676-.8388.744H13.9928l-.8388-.744-.3216-2.676L9.9548 26.382 7.8356 28.05 6.716 27.9816 3.9608 25.2204l-.0684-1.1208 1.6632-2.1192-1.1892-2.8752-2.6772-.3216-.7452-.8388V14.0424l.7452-.84 2.676-.3204 1.1892-2.88L3.8912 7.8852 3.956 6.7644l2.76-2.7612L7.8356 3.936l2.118 1.6644 2.8776-1.1892.3216-2.6772.8388-.744H17.894l.84.744.3204 2.6772 2.8752 1.188 2.1192-1.6668 1.1208.0684 2.7588 2.76.0684 1.1208-1.6644 2.1156 1.1904 2.8812L30.2 13.2" />
  </g>
</svg>
